<?xml version="1.0" standalone="no"?>
<!DOCTYPE svg PUBLIC "-//W3C//DTD SVG 20010904//EN"
 "http://www.w3.org/TR/2001/REC-SVG-20010904/DTD/svg10.dtd">
<svg version="1.0" xmlns="http://www.w3.org/2000/svg"
 viewBox="0 0 436.000000 90.000000"
 preserveAspectRatio="xMidYMid meet">

<g transform="translate(0.000000,90.000000) scale(0.100000,-0.100000)"
fill="#000000" stroke="none">
<path d="M1758 791 l-167 -98 49 -27 50 -27 120 68 119 68 1 58 c0 31 -1 57
-2 56 -2 0 -78 -45 -170 -98z"/>
<path d="M1970 828 l0 -53 93 -53 c50 -29 104 -60 118 -69 26 -16 29 -15 74
11 25 15 45 29 43 31 -7 7 -300 176 -313 182 -12 4 -15 -6 -15 -49z"/>
<path d="M1823 674 l-113 -66 0 -142 0 -142 112 -64 c61 -36 115 -66 120 -68
4 -2 62 27 128 65 l119 68 1 140 0 140 -116 68 c-63 37 -121 67 -127 67 -7 0
-63 -30 -124 -66z"/>
<path d="M30 705 c0 -25 1 -25 90 -25 l90 0 0 -230 0 -230 25 0 25 0 0 230 0
230 90 0 c89 0 90 0 90 25 l0 25 -205 0 -205 0 0 -25z"/>
<path d="M546 528 c-50 -112 -100 -227 -113 -255 l-23 -53 29 0 c26 0 32 6 56
65 l28 65 136 0 136 0 26 -63 c21 -52 30 -63 52 -65 15 -2 27 -1 27 3 0 6 -76
182 -168 390 -41 93 -52 110 -73 113 -23 3 -30 -11 -113 -200z m170 5 c27 -65
51 -121 52 -125 2 -5 -46 -8 -107 -8 -61 0 -111 4 -111 8 0 4 23 59 50 122 28
63 50 115 50 117 0 2 4 3 8 3 4 0 30 -53 58 -117z"/>
<path d="M990 476 l0 -256 138 0 c114 0 143 3 172 18 87 47 90 182 4 230 -13
8 -12 13 14 39 41 40 50 91 26 139 -35 70 -57 78 -214 82 l-140 4 0 -256z
m269 189 c52 -26 57 -91 12 -136 -29 -28 -32 -29 -130 -29 l-101 0 0 90 0 90
95 0 c65 0 105 -5 124 -15z m26 -240 c35 -34 35 -102 0 -135 -24 -22 -34 -24
-133 -25 l-107 0 -3 93 -3 92 111 0 c104 0 112 -1 135 -25z"/>
<path d="M2530 475 l0 -255 155 0 155 0 0 25 0 25 -130 0 -130 0 0 230 0 230
-25 0 -25 0 0 -255z"/>
<path d="M3004 711 c-51 -23 -98 -80 -114 -137 -8 -26 -11 -78 -8 -128 4 -72
9 -92 34 -133 73 -118 247 -138 350 -39 126 122 80 403 -74 446 -57 16 -142
12 -188 -9z m203 -57 c54 -41 68 -77 68 -179 0 -102 -17 -151 -67 -186 -60
-43 -157 -37 -213 13 -88 77 -82 292 11 353 64 42 145 42 201 -1z"/>
<path d="M3565 711 c-89 -40 -143 -148 -132 -265 15 -155 92 -230 237 -231 62
0 83 4 119 25 48 27 55 37 42 59 -7 11 -18 9 -62 -13 -147 -73 -279 13 -279
182 0 183 134 270 288 187 l42 -24 11 21 c13 23 8 28 -56 58 -53 26 -155 26
-210 1z"/>
<path d="M3947 723 c-4 -3 -7 -118 -7 -255 l0 -248 30 0 29 0 3 119 3 119 60
-55 c204 -186 202 -185 235 -181 31 3 29 6 -104 128 l-135 125 132 127 c132
127 132 127 97 127 -31 1 -49 -13 -155 -114 -66 -63 -123 -114 -127 -115 -5 0
-8 52 -8 115 0 114 0 115 -23 115 -13 0 -27 -3 -30 -7z"/>
<path d="M1570 466 l0 -196 50 28 50 27 0 141 0 141 -50 27 -50 27 0 -195z"/>
<path d="M2273 632 l-43 -23 0 -143 0 -142 41 -23 c22 -13 42 -21 45 -18 2 2
3 87 2 188 l-3 184 -42 -23z"/>
<path d="M1638 268 c-21 -12 -38 -24 -38 -28 0 -5 315 -190 325 -190 3 0 5 24
5 53 l0 52 -117 68 c-64 37 -121 67 -127 67 -6 0 -28 -10 -48 -22z"/>
<path d="M2083 224 l-113 -66 0 -54 c0 -30 2 -54 5 -54 2 0 37 20 77 43 40 24
113 67 162 95 l88 50 -41 26 c-22 14 -46 26 -53 26 -7 0 -64 -30 -125 -66z"/>
</g>
</svg>
